<?xml version="1.0" standalone="no"?><!DOCTYPE svg PUBLIC "-//W3C//DTD SVG 1.1//EN"
        "http://www.w3.org/Graphics/SVG/1.1/DTD/svg11.dtd">
<svg class="icon" viewBox="0 0 1024 1024" version="1.1" xmlns="http://www.w3.org/2000/svg"
     width="16" height="16">
    <path d="M508.4 505.3m-398.2 0a398.2 398.2 0 1 0 796.4 0 398.2 398.2 0 1 0-796.4 0Z" fill="#20BB45"
   />
    <path d="M754.8 275.5l-27.7 30.8 5.3 43.6c-0.2 2.2-0.9 4.5-2.5 6.1-3.1 3.3-7.9 3.8-11.4 1.4 0 0 0 0.1 0.1 0.5L682.4 340l-35.6 17.4c0-0.1 0.1-0.1 0-0.1-3.5 2.3-8.4 1.8-11.4-1.4-2.1-2.2-3-5-2.6-7.9 0-0.1 0 0-0.1 0l5-41.8-27-30.1c-3.1-3.1-3.9-8-1.7-12 1.5-2.6 3.9-4.3 6.6-4.8 0.1 0 0.1-0.1 0-0.2l39.1-7.9 19.1-36.1c1.1-2.6 3.3-4.7 6.1-5.5 4.2-1.1 8.6 0.9 10.6 4.8l19.4 36.8 39.2 7.9c-0.1 0.1-0.1 0.1 0 0.1 2.6 0.5 5.1 2.2 6.6 4.8 2.3 3.9 1.6 8.4-0.9 11.5z"
          fill="#5ADB37"/>
    <path d="M735.3 462l-86.1 95.6 16.4 135.3c-0.6 6.9-2.6 13.7-7.7 19-9.7 10.2-24.5 11.6-35.7 4.3-0.1-0.1 0.1 0.5 0.5 1.4L510 662.8l-110.7 54c0.1-0.2 0.2-0.6 0.1-0.5-11.2 7.2-26.1 5.7-35.7-4.3-6.4-6.7-9.2-15.8-8.4-24.6 0-0.2-0.1-0.1-0.2-0.1l15.6-129.7-84-93.3h0.1c-9.6-9.5-12.1-24.8-5.3-37.3 4.6-8.2 12.2-13.4 20.5-14.8 0.5-0.1 0.3-0.3-0.1-0.6l121.9-24.4L483.3 275s0.1 0.1 0.1 0c3.4-8 10.2-14.4 19-16.9 13.3-3.8 26.8 2.7 33.1 14.9L596 387.3l122.3 24.4c-0.3 0.2-0.3 0.5 0 0.6 8.4 1.4 15.9 6.6 20.5 14.8 6.4 11.4 4.4 25.4-3.5 34.9z"
          fill="#89F92E"/>
    <path d="M350.2 715.9H242.3C284.6 575.6 407.4 470.1 557 453c-104.9 49.6-183.2 146.2-206.8 262.9z" fill="#20BB45"
    />
</svg>